<svg width="90" height="82" viewBox="0 0 90 82" fill="none" xmlns="http://www.w3.org/2000/svg">
<path d="M4.275 21.7058H85.725V77.4215H90V4.5777H85.725V17.4308H4.275V4.5777H0V77.4215H4.275V21.7058Z" fill="#2D2E83"/>
<path d="M85.7234 77.4225H4.27344V81.7257H85.7234V77.4225Z" fill="#2D2E83"/>
<path d="M12.8535 30.2843V68.8718H77.1473V30.2843H12.8535ZM38.5598 51.7156H34.2848V55.9906H30.0098V60.2937H25.7066V55.9906H30.0098V51.7156H34.2848V47.4406H30.0098V43.1374H25.7066V38.8624H30.0098V43.1374H34.2848V47.4406H38.5598V51.7156ZM64.2941 51.7156H47.1379V47.4406H64.2941V51.7156Z" fill="#2D2E83"/>
<path d="M30.0082 8.85278H25.7051V13.1559H30.0082V8.85278Z" fill="#2D2E83"/>
<path d="M21.4303 8.85278H17.1553V13.1559H21.4303V8.85278Z" fill="#2D2E83"/>
<path d="M12.8521 8.85278H8.57715V13.1559H12.8521V8.85278Z" fill="#2D2E83"/>
<path d="M85.7234 0.275146H4.27344V4.57827H85.7234V0.275146Z" fill="#2D2E83"/>
</svg>
