<svg width="65" height="64" viewBox="0 0 65 64" fill="none" xmlns="http://www.w3.org/2000/svg">
<path d="M64.5 51.8198H61.46V60.9598H64.5V51.8198Z" fill="#F7A51E"/>
<path d="M64.5 27.4399H61.46V36.5799H64.5V27.4399Z" fill="#F7A51E"/>
<path d="M64.5 3.06006H61.46V12.2001H64.5V3.06006Z" fill="#F7A51E"/>
<path d="M61.4604 36.5801H58.4004V39.6201H61.4604V36.5801Z" fill="#F7A51E"/>
<path d="M61.4604 24.3799H58.4004V27.4399H61.4604V24.3799Z" fill="#F7A51E"/>
<path d="M61.4603 0H52.3203V3.06H61.4603V0Z" fill="#F7A51E"/>
<path d="M61.4603 60.96H52.3203V64H61.4603V60.96Z" fill="#F7A51E"/>
<path d="M58.4004 39.6201H55.3604V42.6801H58.4004V39.6201Z" fill="#F7A51E"/>
<path d="M58.4004 21.3398H55.3604V24.3798H58.4004V21.3398Z" fill="#F7A51E"/>
<path d="M55.3598 42.6802H49.2598V45.7202H55.3598V42.6802Z" fill="#F7A51E"/>
<path d="M55.3598 18.2998H49.2598V21.3398H55.3598V18.2998Z" fill="#F7A51E"/>
<path d="M49.2597 45.7202H43.1797V48.7602H49.2597V45.7202Z" fill="#F7A51E"/>
<path d="M49.2597 15.2402H43.1797V18.3002H49.2597V15.2402Z" fill="#F7A51E"/>
<path d="M43.1798 24.3798H40.1198V21.3398H37.0798V18.2998H27.9398V21.3398H24.8798V24.3798H21.8398V27.4398H18.7998V36.5798H21.8398V39.6198H24.8798V42.6798H27.9398V45.7198H37.0798V42.6798H40.1198V39.6198H43.1798V36.5798H46.2198V27.4398H43.1798V24.3798ZM37.0798 33.5398H34.0198V36.5798H30.9798V33.5398H27.9398V30.4798H30.9798V27.4398H34.0198V30.4798H37.0798V33.5398Z" fill="#F7A51E"/>
<path d="M43.1798 48.7598H21.8398V51.8198H43.1798V48.7598Z" fill="#F7A51E"/>
<path d="M43.1798 12.2002H21.8398V15.2402H43.1798V12.2002Z" fill="#F7A51E"/>
<path d="M21.8402 45.7202H15.7402V48.7602H21.8402V45.7202Z" fill="#F7A51E"/>
<path d="M21.8402 15.2402H15.7402V18.3002H21.8402V15.2402Z" fill="#F7A51E"/>
<path d="M15.7396 42.6802H9.63965V45.7202H15.7396V42.6802Z" fill="#F7A51E"/>
<path d="M15.7396 18.2998H9.63965V21.3398H15.7396V18.2998Z" fill="#F7A51E"/>
<path d="M12.6996 60.96H3.55957V64H12.6996V60.96Z" fill="#F7A51E"/>
<path d="M9.63961 39.6201H6.59961V42.6801H9.63961V39.6201Z" fill="#F7A51E"/>
<path d="M9.63961 21.3398H6.59961V24.3798H9.63961V21.3398Z" fill="#F7A51E"/>
<path d="M12.6996 0H3.55957V3.06H12.6996V0Z" fill="#F7A51E"/>
<path d="M6.59957 36.5801H3.55957V39.6201H6.59957V36.5801Z" fill="#F7A51E"/>
<path d="M6.59957 24.3799H3.55957V27.4399H6.59957V24.3799Z" fill="#F7A51E"/>
<path d="M3.56 51.8198H0.5V60.9598H3.56V51.8198Z" fill="#F7A51E"/>
<path d="M3.56 27.4399H0.5V36.5799H3.56V27.4399Z" fill="#F7A51E"/>
<path d="M3.56 3.06006H0.5V12.2001H3.56V3.06006Z" fill="#F7A51E"/>
</svg>
