<svg width="173" height="27" viewBox="0 0 173 27" fill="none" xmlns="http://www.w3.org/2000/svg">
<g clip-path="url(#clip0_73_473)">
<path d="M23.3161 6.93149H15.4696V26.4076H7.97347V6.93149H0.0932617V0.801529H23.3161V6.93149Z" fill="white"/>
<path d="M34.0434 8.77139L39.3092 26.4074H46.9233L38.7331 4.23816C38.3889 3.24768 37.7545 2.38826 36.9154 1.77563C36.0763 1.163 35.0728 0.826585 34.04 0.811691C33.0072 0.826585 32.0037 1.163 31.1646 1.77563C30.3255 2.38826 29.6911 3.24768 29.3469 4.23816L21.123 26.4143H28.7742L34.0434 8.77824V8.77139Z" fill="white"/>
<path d="M69.8398 26.4076V12.9175L65.6049 21.6996C65.5082 21.9078 65.3558 22.0841 65.1651 22.2083C64.9744 22.3325 64.7533 22.3996 64.5268 22.402H62.0001C61.7742 22.399 61.5537 22.3316 61.3637 22.2074C61.1737 22.0832 61.0218 21.9073 60.9253 21.6996L56.6904 12.9175V26.4076H49.1909V0.801529H53.9649C55.0169 0.815736 56.0439 1.12911 56.9299 1.7062C57.8159 2.28329 58.5253 3.10105 58.978 4.06696L63.2736 12.8456L67.5859 4.05325C68.0397 3.0907 68.7489 2.27623 69.6335 1.70168C70.518 1.12713 71.5429 0.815362 72.5924 0.801529H77.336V26.4076H69.8398Z" fill="white"/>
<path d="M80.5298 13.3869C80.5337 11.8 80.8522 10.2302 81.4664 8.77143C82.1061 7.23935 83.0409 5.85297 84.2155 4.69393C85.4825 3.44999 86.9682 2.45964 88.5953 1.77458C90.4612 0.999967 92.4626 0.619902 94.4777 0.657545C97.119 0.657545 99.4077 1.16809 101.344 2.18918C103.143 3.08408 104.645 4.49421 105.666 6.24612L99.9389 10.0701C99.7104 9.48754 99.3664 8.95915 98.9282 8.51787C98.5153 8.11759 98.0407 7.78886 97.5233 7.54475C97.0149 7.30657 96.478 7.13723 95.9264 7.04106C95.3991 6.94594 94.8649 6.89665 94.3294 6.89372C93.3677 6.86877 92.4135 7.07295 91.5432 7.48993C90.7982 7.8582 90.1416 8.38802 89.6195 9.04212C89.119 9.68566 88.7419 10.4191 88.5077 11.2042C88.2669 11.9803 88.1431 12.789 88.1405 13.6028C88.1381 14.4751 88.2805 15.3416 88.5616 16.1658C88.8321 16.9604 89.2508 17.6945 89.7947 18.3279C90.3437 18.9622 91.0174 19.4723 91.7723 19.8252C92.5989 20.2078 93.4989 20.3985 94.4069 20.3837C94.9363 20.3814 95.4643 20.3275 95.9836 20.2227C96.5235 20.1122 97.0468 19.9302 97.5401 19.6813C98.0367 19.4307 98.4914 19.1023 98.8878 18.7082C99.2976 18.2915 99.6187 17.7935 99.8311 17.2451L105.943 20.6716C105.51 21.6413 104.874 22.5032 104.079 23.1969C103.224 23.9573 102.265 24.5885 101.233 25.0712C100.139 25.588 98.9903 25.9754 97.8097 26.2259C96.6463 26.4839 95.4595 26.6171 94.2688 26.6234C92.3588 26.6466 90.4655 26.259 88.7132 25.4858C87.091 24.7706 85.6164 23.7498 84.3671 22.4773C83.1675 21.2531 82.2082 19.8076 81.5405 18.2182C80.8827 16.6949 80.5387 15.0506 80.5298 13.3869Z" fill="#F7A51E"/>
<path d="M120.476 26.6231C118.629 26.6517 116.795 26.3078 115.079 25.6115C113.364 24.9152 111.8 23.8802 110.48 22.5662C109.289 21.3748 108.336 19.9598 107.674 18.3996C107.011 16.8777 106.667 15.2325 106.663 13.5683C106.663 11.8885 107.017 10.2282 107.701 8.69925C108.39 7.14046 109.377 5.73684 110.605 4.57036C111.896 3.34787 113.399 2.38105 115.039 1.71953C116.816 0.996284 118.717 0.635379 120.631 0.657326C122.568 0.629471 124.489 1.0098 126.274 1.77436C127.895 2.46918 129.37 3.4729 130.62 4.7314C131.81 5.92807 132.759 7.34916 133.413 8.91512C134.06 10.4291 134.395 12.0616 134.397 13.7122C134.397 15.3875 134.039 17.0427 133.349 18.5641C132.661 20.113 131.681 21.5098 130.465 22.6758C129.186 23.901 127.694 24.8735 126.065 25.5438C124.291 26.278 122.391 26.645 120.476 26.6231ZM114.287 13.6402C114.285 14.4905 114.415 15.3358 114.671 16.145C114.916 16.9304 115.309 17.66 115.827 18.2934C116.359 18.9339 117.021 19.4504 117.767 19.8079C118.652 20.1912 119.604 20.387 120.566 20.3835C121.527 20.3799 122.478 20.1771 123.36 19.7873C124.113 19.4263 124.777 18.8969 125.301 18.2385C125.807 17.5905 126.187 16.8495 126.419 16.0559C126.658 15.249 126.781 14.411 126.783 13.5683C126.784 12.717 126.654 11.8708 126.399 11.0601C126.154 10.2775 125.755 9.55357 125.227 8.93225C124.683 8.30465 124.015 7.80133 123.266 7.45544C122.4 7.06394 121.46 6.87204 120.513 6.8935C119.553 6.86996 118.601 7.06794 117.727 7.47258C116.977 7.83133 116.314 8.35437 115.786 9.00421C115.271 9.6428 114.885 10.3788 114.651 11.1697C114.409 11.9701 114.287 12.8029 114.287 13.6402Z" fill="#F7A51E"/>
<path d="M145.084 13.8187V26.4076H137.588V0.801529H140.856C141.678 0.807051 142.488 0.993708 143.232 1.34863C143.976 1.70356 144.635 2.21831 145.165 2.85741L154.389 13.8221V0.801529H161.885V26.4076H158.415C157.621 26.4015 156.838 26.2229 156.117 25.8837C155.397 25.5445 154.756 25.0525 154.238 24.4408L145.084 13.8187Z" fill="#F7A51E"/>
<path d="M169.152 26.661C168.444 26.6779 167.745 26.4965 167.131 26.1368C166.571 25.8084 166.106 25.3356 165.783 24.7662C165.389 24.034 165.231 23.1944 165.33 22.3658C165.43 21.5371 165.783 20.7612 166.339 20.1473C166.703 19.7704 167.141 19.476 167.625 19.2834C168.109 19.0909 168.627 19.0047 169.146 19.0303C169.824 19.0204 170.493 19.1955 171.083 19.5374C171.656 19.8679 172.139 20.339 172.488 20.908C172.849 21.4911 173.037 22.1684 173.027 22.8577C173.033 23.5346 172.845 24.1987 172.488 24.7696C172.134 25.334 171.652 25.8039 171.083 26.1402C170.498 26.4902 169.831 26.6704 169.152 26.661Z" fill="#F7A51E"/>
</g>
<defs>
<clipPath id="clip0_73_473">
<rect width="173" height="26" fill="white" transform="translate(0 0.5)"/>
</clipPath>
</defs>
</svg>
