<svg width="173" height="26" viewBox="0 0 173 26" fill="none" xmlns="http://www.w3.org/2000/svg">
<g clip-path="url(#clip0_151_437)">
<path d="M23.3164 6.43149H15.4699V25.9076H7.97372V6.43149H0.0935059V0.301529H23.3164V6.43149Z" fill="#2D2E83"/>
<path d="M34.0435 8.27139L39.3093 25.9074H46.9234L38.7332 3.73816C38.389 2.74768 37.7546 1.88826 36.9156 1.27563C36.0765 0.662999 35.0729 0.326585 34.0401 0.311691C33.0073 0.326585 32.0038 0.662999 31.1647 1.27563C30.3256 1.88826 29.6912 2.74768 29.347 3.73816L21.1232 25.9143H28.7743L34.0435 8.27824V8.27139Z" fill="#2D2E83"/>
<path d="M69.8396 25.9076V12.4175L65.6047 21.1996C65.5079 21.4078 65.3555 21.5841 65.1649 21.7083C64.9742 21.8325 64.753 21.8996 64.5266 21.902H61.9998C61.774 21.899 61.5535 21.8316 61.3635 21.7074C61.1735 21.5832 61.0216 21.4073 60.9251 21.1996L56.6902 12.4175V25.9076H49.1907V0.301529H53.9646C55.0166 0.315736 56.0437 0.629114 56.9297 1.2062C57.8156 1.78329 58.5251 2.60105 58.9778 3.56696L63.2733 12.3456L67.5857 3.55325C68.0395 2.5907 68.7486 1.77623 69.6332 1.20168C70.5178 0.627131 71.5426 0.315362 72.5921 0.301529H77.3357V25.9076H69.8396Z" fill="#2D2E83"/>
<path d="M80.5295 12.8869C80.5334 11.3 80.852 9.73022 81.4661 8.27143C82.1059 6.73935 83.0406 5.35297 84.2153 4.19393C85.4822 2.94999 86.968 1.95964 88.5951 1.27458C90.461 0.499967 92.4624 0.119902 94.4774 0.157545C97.1188 0.157545 99.4075 0.66809 101.344 1.68918C103.142 2.58408 104.645 3.99421 105.666 5.74612L99.9387 9.57007C99.7102 8.98754 99.3661 8.45915 98.9279 8.01787C98.5151 7.61759 98.0405 7.28886 97.523 7.04475C97.0147 6.80657 96.4778 6.63723 95.9261 6.54106C95.3989 6.44594 94.8646 6.39665 94.3292 6.39372C93.3674 6.36877 92.4133 6.57295 91.543 6.98993C90.798 7.3582 90.1413 7.88802 89.6193 8.54212C89.1188 9.18566 88.7417 9.91908 88.5075 10.7042C88.2667 11.4803 88.1429 12.289 88.1402 13.1028C88.1379 13.9751 88.2802 14.8416 88.5614 15.6658C88.8318 16.4604 89.2505 17.1945 89.7944 17.8279C90.3434 18.4622 91.0171 18.9723 91.7721 19.3252C92.5987 19.7078 93.4986 19.8985 94.4067 19.8837C94.9361 19.8814 95.4641 19.8275 95.9834 19.7227C96.5233 19.6122 97.0465 19.4302 97.5399 19.1813C98.0364 18.9307 98.4912 18.6023 98.8875 18.2082C99.2974 17.7915 99.6185 17.2935 99.8309 16.7451L105.942 20.1716C105.51 21.1413 104.874 22.0032 104.079 22.6969C103.224 23.4573 102.265 24.0885 101.232 24.5712C100.139 25.088 98.9901 25.4754 97.8094 25.7259C96.646 25.9839 95.4592 26.1171 94.2685 26.1234C92.3585 26.1466 90.4653 25.759 88.713 24.9858C87.0907 24.2706 85.6161 23.2498 84.3669 21.9773C83.1673 20.7531 82.2079 19.3076 81.5403 17.7182C80.8825 16.1949 80.5385 14.5506 80.5295 12.8869Z" fill="#F7A51E"/>
<path d="M120.476 26.1231C118.629 26.1517 116.795 25.8078 115.079 25.1115C113.364 24.4152 111.801 23.3802 110.48 22.0662C109.289 20.8748 108.336 19.4598 107.674 17.8996C107.012 16.3777 106.668 14.7325 106.663 13.0683C106.663 11.3885 107.017 9.72823 107.701 8.19925C108.39 6.64046 109.377 5.23684 110.605 4.07036C111.896 2.84787 113.399 1.88105 115.039 1.21953C116.817 0.496284 118.717 0.135379 120.631 0.157326C122.568 0.129471 124.49 0.5098 126.275 1.27436C127.895 1.96918 129.371 2.9729 130.621 4.2314C131.81 5.42807 132.759 6.84916 133.414 8.41512C134.06 9.9291 134.395 11.5616 134.397 13.2122C134.397 14.8875 134.039 16.5427 133.35 18.0641C132.661 19.613 131.682 21.0098 130.466 22.1758C129.187 23.401 127.695 24.3735 126.066 25.0438C124.292 25.778 122.392 26.145 120.476 26.1231ZM114.287 13.1402C114.285 13.9905 114.415 14.8358 114.672 15.645C114.916 16.4304 115.309 17.16 115.827 17.7934C116.36 18.4339 117.022 18.9504 117.768 19.3079C118.652 19.6912 119.605 19.887 120.566 19.8835C121.528 19.8799 122.478 19.6771 123.36 19.2873C124.114 18.9263 124.777 18.3969 125.301 17.7385C125.808 17.0905 126.187 16.3495 126.419 15.5559C126.659 14.749 126.781 13.911 126.783 13.0683C126.784 12.217 126.654 11.3708 126.399 10.5601C126.154 9.77746 125.755 9.05357 125.227 8.43225C124.683 7.80465 124.015 7.30133 123.266 6.95544C122.4 6.56394 121.461 6.37204 120.513 6.3935C119.554 6.36996 118.601 6.56794 117.727 6.97258C116.977 7.33133 116.315 7.85437 115.787 8.50421C115.271 9.1428 114.886 9.87878 114.651 10.6697C114.409 11.4701 114.287 12.3029 114.287 13.1402Z" fill="#F7A51E"/>
<path d="M145.084 13.3187V25.9076H137.588V0.301529H140.856C141.678 0.307051 142.488 0.493708 143.232 0.848632C143.976 1.20356 144.635 1.71831 145.165 2.35741L154.389 13.3221V0.301529H161.885V25.9076H158.415C157.621 25.9015 156.838 25.7229 156.117 25.3837C155.397 25.0445 154.756 24.5525 154.238 23.9408L145.084 13.3187Z" fill="#F7A51E"/>
<path d="M169.153 26.161C168.444 26.1779 167.745 25.9965 167.131 25.6368C166.571 25.3084 166.107 24.8356 165.784 24.2662C165.389 23.534 165.231 22.6944 165.331 21.8658C165.43 21.0371 165.783 20.2612 166.339 19.6473C166.703 19.2704 167.142 18.9759 167.625 18.7834C168.109 18.5909 168.627 18.5046 169.146 18.5303C169.825 18.5203 170.493 18.6954 171.083 19.0374C171.657 19.3678 172.14 19.839 172.488 20.408C172.849 20.9911 173.037 21.6684 173.027 22.3576C173.033 23.0346 172.846 23.6987 172.488 24.2696C172.134 24.834 171.652 25.3039 171.083 25.6402C170.499 25.9902 169.831 26.1704 169.153 26.161Z" fill="#F7A51E"/>
</g>
<defs>
<clipPath id="clip0_151_437">
<rect width="173" height="26" fill="white"/>
</clipPath>
</defs>
</svg>
