<svg width="116" height="110" viewBox="0 0 116 110" fill="none" xmlns="http://www.w3.org/2000/svg">
<path d="M103.713 97.8645H109.451V92.1645H115.151V17.877H109.451V23.577H103.713V29.277H86.5757V35.0145H29.4257V40.7145H80.8757V69.2895H86.5757V63.5895H103.713V57.852H109.451V63.5895H103.713V69.2895H86.5757V74.9895H80.8757V103.564H29.4257V109.302H86.5757V103.564H103.713V97.8645Z" fill="white"/>
<path d="M109.45 12.1387H98.0128V17.8762H109.45V12.1387Z" fill="white"/>
<path d="M98.0123 6.43848H80.8748V12.1385H98.0123V6.43848Z" fill="white"/>
<path d="M80.8755 69.29H29.4255V74.99H80.8755V69.29Z" fill="white"/>
<path d="M52.3013 86.4248H35.1638V92.1623H52.3013V86.4248Z" fill="white"/>
<path d="M52.3013 52.1514H35.1638V57.8514H52.3013V52.1514Z" fill="white"/>
<path d="M80.8764 0.701172H35.1639V6.43867H80.8764V0.701172Z" fill="white"/>
<path d="M29.4251 97.8652H12.2876V103.565H29.4251V97.8652Z" fill="white"/>
<path d="M29.4251 63.5889H12.2876V69.2889H29.4251V63.5889Z" fill="white"/>
<path d="M29.4251 29.2764H12.2876V35.0139H29.4251V29.2764Z" fill="white"/>
<path d="M35.1645 6.43848H17.9895V12.1385H35.1645V6.43848Z" fill="white"/>
<path d="M23.7251 74.9893H12.2876V86.4268H23.7251V74.9893Z" fill="white"/>
<path d="M23.7251 40.7129H12.2876V52.1504H23.7251V40.7129Z" fill="white"/>
<path d="M17.9884 12.1387H6.58838V17.8762H17.9884V12.1387Z" fill="white"/>
<path d="M12.2884 92.165H6.58838V97.865H12.2884V92.165Z" fill="white"/>
<path d="M6.5876 63.5895H12.2876V57.852H6.5876V29.277H12.2876V23.577H6.5876V17.877H0.850098V92.1645H6.5876V63.5895Z" fill="white"/>
</svg>
