<svg width="120" height="120" viewBox="0 0 120 120" fill="none" xmlns="http://www.w3.org/2000/svg">
<path d="M120.002 28.5752H114.302V34.2752H120.002V28.5752Z" fill="white"/>
<path d="M102.862 57.1514V62.8514H91.4623V68.5889H102.862V102.864H80.0248V108.564H102.862V114.301H120V57.1514H102.862Z" fill="white"/>
<path d="M114.3 34.2754H108.6V40.0129H114.3V34.2754Z" fill="white"/>
<path d="M108.599 28.5752H102.862V34.2752H108.599V28.5752Z" fill="white"/>
<path d="M102.863 34.2754H97.1627V40.0129H102.863V34.2754Z" fill="white"/>
<path d="M102.863 5.7373H97.1627V11.4373H102.863V5.7373Z" fill="white"/>
<path d="M97.1612 28.5752H91.4612V34.2752H97.1612V28.5752Z" fill="white"/>
<path d="M91.4638 57.1504H85.7263V62.8504H91.4638V57.1504Z" fill="white"/>
<path d="M85.7248 51.4502H80.0248V57.1502H85.7248V51.4502Z" fill="white"/>
<path d="M80.0229 85.7246H74.2854V97.1621H62.8854V108.562H68.5854V102.862H80.0229V85.7246Z" fill="white"/>
<path d="M74.2873 80.0244H68.5873V85.7244H74.2873V80.0244Z" fill="white"/>
<path d="M74.2873 11.4365H68.5873V17.1365H74.2873V11.4365Z" fill="white"/>
<path d="M68.5854 74.2881H62.8854V80.0256H68.5854V74.2881Z" fill="white"/>
<path d="M68.5854 62.8486H62.8854V68.5861H68.5854V62.8486Z" fill="white"/>
<path d="M80.0259 45.7119H57.1509V51.4494H80.0259V45.7119Z" fill="white"/>
<path d="M68.5854 17.1367H62.8854V22.8742H68.5854V17.1367Z" fill="white"/>
<path d="M68.5854 5.7373H62.8854V11.4373H68.5854V5.7373Z" fill="white"/>
<path d="M62.8884 91.4248H57.1509V97.1623H62.8884V91.4248Z" fill="white"/>
<path d="M62.8884 68.5879H57.1509V74.2879H62.8884V68.5879Z" fill="white"/>
<path d="M62.8884 11.4365H57.1509V17.1365H62.8884V11.4365Z" fill="white"/>
<path d="M51.4515 114.301H34.314V120.001H57.1515V114.301H62.889V108.563H51.4515V114.301Z" fill="white"/>
<path d="M57.149 51.4512H51.449V57.1512H57.149V51.4512Z" fill="white"/>
<path d="M51.451 102.863H45.7135V108.563H51.451V102.863Z" fill="white"/>
<path d="M57.151 74.2881H45.7135V80.0256H57.151V74.2881Z" fill="white"/>
<path d="M51.451 57.1514H45.7135V62.8514H51.451V57.1514Z" fill="white"/>
<path d="M51.4492 45.7119H40.0117V51.4494H51.4492V45.7119Z" fill="white"/>
<path d="M45.7117 97.1631H40.0117V102.863H45.7117V97.1631Z" fill="white"/>
<path d="M45.7117 62.8486H40.0117V74.2861H45.7117V62.8486Z" fill="white"/>
<path d="M45.7117 22.876H40.0117V28.576H45.7117V22.876Z" fill="white"/>
<path d="M40.014 51.4512H34.314V57.1512H40.014V51.4512Z" fill="white"/>
<path d="M34.3129 108.563H28.5754V114.301H34.3129V108.563Z" fill="white"/>
<path d="M34.3129 57.1504H28.5754V62.8504H34.3129V57.1504Z" fill="white"/>
<path d="M17.175 102.863V68.5879H28.575V62.8504H17.175V57.1504H0V114.3H17.175V108.563H28.575V102.863H17.175Z" fill="white"/>
<path d="M28.5735 0H22.8735V5.7375H28.5735V0Z" fill="white"/>
<path d="M17.176 45.7127V40.0127H22.876V34.2752H17.176V28.5752H11.4385V34.2752H5.73853V40.0127H11.4385V45.7127H17.176Z" fill="white"/>
</svg>
