<svg width="120" height="120" viewBox="0 0 120 120" fill="none" xmlns="http://www.w3.org/2000/svg">
<path d="M68.55 11.4377V5.7002H62.85V11.4377H57.15V5.7002H51.4125V11.4377H0V17.1377H5.7V22.8752H11.4375V79.9877H17.1375V22.8752H102.863V79.9877H108.562V22.8752H114.262V17.1377H120V11.4377H68.55Z" fill="white"/>
<path d="M102.864 79.9883H97.1263V85.7258H102.864V79.9883Z" fill="white"/>
<path d="M22.8372 85.7236V91.4236H57.1497V108.561H62.8497V91.4236H97.1247V85.7236H22.8372Z" fill="white"/>
<path d="M34.2754 68.5877V62.8502H39.9754V57.1502H34.2754V28.5752H28.5754V74.2877H91.4254V68.5877H34.2754Z" fill="white"/>
<path d="M85.7258 34.2764H79.9883V40.0139H85.7258V34.2764Z" fill="white"/>
<path d="M79.9864 40.0127H74.2864V45.7127H79.9864V40.0127Z" fill="white"/>
<path d="M74.2885 45.7119H68.551V51.4494H74.2885V45.7119Z" fill="white"/>
<path d="M68.5489 108.563H62.8489V114.301H68.5489V108.563Z" fill="white"/>
<path d="M68.5489 51.4502H62.8489V57.1502H68.5489V51.4502Z" fill="white"/>
<path d="M62.8511 114.3H57.1511V120H62.8511V114.3Z" fill="white"/>
<path d="M62.8511 57.1514H57.1511V62.8514H62.8511V57.1514Z" fill="white"/>
<path d="M62.851 0H57.151V5.7H62.851V0Z" fill="white"/>
<path d="M57.1502 108.562H51.4127V114.3H57.1502V108.562Z" fill="white"/>
<path d="M57.1503 51.4502H51.4128V57.1502H57.1503V51.4502Z" fill="white"/>
<path d="M51.4136 45.7119H45.7136V51.4494H51.4136V45.7119Z" fill="white"/>
<path d="M45.7128 51.4502H39.9753V57.1502H45.7128V51.4502Z" fill="white"/>
<path d="M22.8379 79.9873H17.1379V85.7248H22.8379V79.9873Z" fill="white"/>
</svg>
