<svg width="120" height="110" viewBox="0 0 120 110" fill="none" xmlns="http://www.w3.org/2000/svg">
<path d="M5.7 29.275H114.3V103.563H120V6.4375H114.3V23.575H5.7V6.4375H0V103.563H5.7V29.275Z" fill="white"/>
<path d="M114.298 103.563H5.69791V109.301H114.298V103.563Z" fill="white"/>
<path d="M17.138 40.7129V92.1629H102.863V40.7129H17.138ZM51.413 69.2879H45.713V74.9879H40.013V80.7254H34.2755V74.9879H40.013V69.2879H45.713V63.5879H40.013V57.8504H34.2755V52.1504H40.013V57.8504H45.713V63.5879H51.413V69.2879ZM85.7255 69.2879H62.8505V63.5879H85.7255V69.2879Z" fill="white"/>
<path d="M40.0113 12.1367H34.2738V17.8742H40.0113V12.1367Z" fill="white"/>
<path d="M28.5737 12.1367H22.8737V17.8742H28.5737V12.1367Z" fill="white"/>
<path d="M17.1362 12.1367H11.4362V17.8742H17.1362V12.1367Z" fill="white"/>
<path d="M114.298 0.700195H5.69791V6.4377H114.298V0.700195Z" fill="white"/>
</svg>
