<svg width="520" height="480" viewBox="0 0 520 480" fill="none" xmlns="http://www.w3.org/2000/svg">
<rect x="0.5" y="0.5" width="519" height="479" fill="#2D2E83"/>
<rect x="0.5" y="0.5" width="519" height="479" stroke="#8081B4"/>
<path d="M24.832 28.976C24.832 25.392 26.592 23.344 30.016 23.344C33.44 23.344 35.2 25.392 35.2 28.976V29.68H31.872V28.752C31.872 27.152 31.232 26.544 30.112 26.544C28.992 26.544 28.352 27.152 28.352 28.752C28.352 33.36 35.232 34.224 35.232 40.624C35.232 44.208 33.44 46.256 29.984 46.256C26.528 46.256 24.736 44.208 24.736 40.624V39.248H28.064V40.848C28.064 42.448 28.768 43.024 29.888 43.024C31.008 43.024 31.712 42.448 31.712 40.848C31.712 36.24 24.832 35.376 24.832 28.976ZM36.9608 28.976C36.9608 25.392 38.8488 23.344 42.3048 23.344C45.7608 23.344 47.6488 25.392 47.6488 28.976V40.624C47.6488 44.208 45.7608 46.256 42.3048 46.256C38.8488 46.256 36.9608 44.208 36.9608 40.624V28.976ZM40.4808 40.848C40.4808 42.448 41.1848 43.056 42.3048 43.056C43.4248 43.056 44.1288 42.448 44.1288 40.848V28.752C44.1288 27.152 43.4248 26.544 42.3048 26.544C41.1848 26.544 40.4808 27.152 40.4808 28.752V40.848ZM53.4563 33.552H58.0003V36.752H53.4563V46H49.9363V23.6H59.2483V26.8H53.4563V33.552ZM59.9123 23.6H70.7923V26.8H67.1123V46H63.5923V26.8H59.9123V23.6ZM80.1505 34.064L78.8705 46H74.0385L71.5425 23.6H74.9665L76.8545 41.264L78.5505 23.6H81.9425L83.7025 41.392L85.5265 23.6H88.5985L86.1025 46H81.4305L80.1505 34.064ZM101.297 46H97.745L97.137 41.936H92.817L92.209 46H88.977L92.561 23.6H97.713L101.297 46ZM93.265 38.896H96.657L94.961 27.568L93.265 38.896ZM110.296 46C110.104 45.424 109.976 45.072 109.976 43.248V39.728C109.976 37.648 109.272 36.88 107.672 36.88H106.456V46H102.936V23.6H108.248C111.896 23.6 113.464 25.296 113.464 28.752V30.512C113.464 32.816 112.728 34.32 111.16 35.056C112.92 35.792 113.496 37.488 113.496 39.824V43.28C113.496 44.368 113.528 45.168 113.88 46H110.296ZM106.456 26.8V33.68H107.832C109.144 33.68 109.944 33.104 109.944 31.312V29.104C109.944 27.504 109.4 26.8 108.152 26.8H106.456ZM119.331 33.04H124.163V36.24H119.331V42.8H125.411V46H115.811V23.6H125.411V26.8H119.331V33.04ZM132.561 23.6H138.129C141.649 23.6 143.377 25.552 143.377 29.136V40.464C143.377 44.048 141.649 46 138.129 46H132.561V23.6ZM136.081 26.8V42.8H138.065C139.185 42.8 139.857 42.224 139.857 40.624V28.976C139.857 27.376 139.185 26.8 138.065 26.8H136.081ZM149.144 33.04H153.976V36.24H149.144V42.8H155.224V46H145.624V23.6H155.224V26.8H149.144V33.04ZM162.717 41.872L165.405 23.6H168.637L165.181 46H159.933L156.477 23.6H160.029L162.717 41.872ZM173.8 33.04H178.632V36.24H173.8V42.8H179.88V46H170.28V23.6H179.88V26.8H173.8V33.04ZM182.061 23.6H185.581V42.8H191.373V46H182.061V23.6ZM192.617 28.976C192.617 25.392 194.505 23.344 197.961 23.344C201.417 23.344 203.305 25.392 203.305 28.976V40.624C203.305 44.208 201.417 46.256 197.961 46.256C194.505 46.256 192.617 44.208 192.617 40.624V28.976ZM196.137 40.848C196.137 42.448 196.841 43.056 197.961 43.056C199.081 43.056 199.785 42.448 199.785 40.848V28.752C199.785 27.152 199.081 26.544 197.961 26.544C196.841 26.544 196.137 27.152 196.137 28.752V40.848ZM210.777 23.6C214.297 23.6 216.025 25.552 216.025 29.136V32.048C216.025 35.632 214.297 37.584 210.777 37.584H209.113V46H205.593V23.6H210.777ZM209.113 26.8V34.384H210.777C211.897 34.384 212.505 33.872 212.505 32.272V28.912C212.505 27.312 211.897 26.8 210.777 26.8H209.113ZM225.111 39.504L227.511 23.6H232.407V46H229.079V29.936L226.647 46H223.319L220.695 30.16V46H217.623V23.6H222.519L225.111 39.504ZM238.488 33.04H243.32V36.24H238.488V42.8H244.568V46H234.968V23.6H244.568V26.8H238.488V33.04ZM249.885 29.776V46H246.717V23.6H251.133L254.749 37.008V23.6H257.885V46H254.269L249.885 29.776ZM259.381 23.6H270.261V26.8H266.581V46H263.061V26.8H259.381V23.6Z" fill="white"/>
<path d="M26.286 453H25.134V442.866H26.286V453ZM26.106 442.866H28.986C30.102 442.866 30.954 443.136 31.542 443.676C32.13 444.216 32.424 445.02 32.424 446.088C32.424 447.084 32.118 447.852 31.506 448.392C30.906 448.932 30.066 449.202 28.986 449.202H26.106V448.302H28.86C29.652 448.302 30.264 448.122 30.696 447.762C31.14 447.39 31.362 446.832 31.362 446.088C31.362 445.32 31.146 444.756 30.714 444.396C30.294 444.036 29.676 443.856 28.86 443.856H26.106V442.866ZM33.6706 453V445.674H34.7146L34.8406 447.78L34.8226 449.364V453H33.6706ZM34.8226 449.58L34.7686 447.978C34.7926 447.702 34.8646 447.426 34.9846 447.15C35.1046 446.874 35.2726 446.628 35.4886 446.412C35.7166 446.184 36.0046 446.004 36.3526 445.872C36.7006 445.74 37.1086 445.674 37.5766 445.674H37.9186V446.952H37.5586C36.9826 446.952 36.5146 447.018 36.1546 447.15C35.7946 447.27 35.5186 447.45 35.3266 447.69C35.1346 447.918 35.0026 448.194 34.9306 448.518C34.8586 448.842 34.8226 449.196 34.8226 449.58ZM42.1112 453.18C41.3312 453.18 40.6772 453.018 40.1492 452.694C39.6332 452.37 39.2432 451.926 38.9792 451.362C38.7272 450.798 38.6012 450.156 38.6012 449.436C38.6012 448.704 38.7272 448.056 38.9792 447.492C39.2432 446.916 39.6332 446.466 40.1492 446.142C40.6772 445.818 41.3312 445.656 42.1112 445.656C43.2512 445.656 44.1212 446.004 44.7212 446.7C45.3212 447.384 45.6212 448.296 45.6212 449.436C45.6212 450.144 45.4952 450.78 45.2432 451.344C44.9912 451.908 44.6072 452.358 44.0912 452.694C43.5752 453.018 42.9152 453.18 42.1112 453.18ZM42.1112 452.172C42.7472 452.172 43.2332 452.034 43.5692 451.758C43.9052 451.482 44.1392 451.134 44.2712 450.714C44.4152 450.282 44.4872 449.844 44.4872 449.4C44.4872 448.956 44.4152 448.518 44.2712 448.086C44.1392 447.654 43.9052 447.3 43.5692 447.024C43.2332 446.748 42.7472 446.61 42.1112 446.61C41.4992 446.61 41.0132 446.748 40.6532 447.024C40.3052 447.3 40.0652 447.654 39.9332 448.086C39.8012 448.518 39.7352 448.956 39.7352 449.4C39.7352 449.844 39.8012 450.282 39.9332 450.714C40.0652 451.134 40.3052 451.482 40.6532 451.758C41.0132 452.034 41.4992 452.172 42.1112 452.172ZM52.2638 445.674H53.4158V445.926L50.6438 453H49.0058L46.2158 445.926V445.674H47.3678L49.8158 452.046H49.8518L52.2638 445.674ZM54.7133 453V445.674H55.8833V453H54.7133ZM55.3073 444.576C55.0073 444.576 54.8033 444.498 54.6953 444.342C54.5873 444.186 54.5333 444.006 54.5333 443.802C54.5333 443.61 54.5873 443.442 54.6953 443.298C54.8033 443.142 55.0073 443.064 55.3073 443.064C55.6073 443.064 55.8053 443.142 55.9013 443.298C55.9973 443.442 56.0453 443.61 56.0453 443.802C56.0453 444.006 55.9973 444.186 55.9013 444.342C55.8053 444.498 55.6073 444.576 55.3073 444.576ZM60.8324 453.18C60.1364 453.18 59.5484 453.018 59.0684 452.694C58.6004 452.358 58.2464 451.908 58.0064 451.344C57.7664 450.78 57.6464 450.144 57.6464 449.436C57.6464 448.704 57.7664 448.056 58.0064 447.492C58.2584 446.916 58.6184 446.472 59.0864 446.16C59.5664 445.836 60.1544 445.674 60.8504 445.674C61.3424 445.674 61.7564 445.758 62.0924 445.926C62.4284 446.082 62.6924 446.274 62.8844 446.502C63.0884 446.73 63.2384 446.94 63.3344 447.132C63.4304 447.324 63.4904 447.45 63.5144 447.51H63.5504V442.866H64.7384V453H63.7484L63.5684 451.38H63.5324C63.5084 451.44 63.4424 451.566 63.3344 451.758C63.2264 451.95 63.0644 452.154 62.8484 452.37C62.6444 452.586 62.3744 452.778 62.0384 452.946C61.7144 453.102 61.3124 453.18 60.8324 453.18ZM61.1204 452.154C61.6004 452.154 62.0204 452.046 62.3804 451.83C62.7404 451.614 63.0224 451.302 63.2264 450.894C63.4304 450.474 63.5324 449.988 63.5324 449.436C63.5324 448.884 63.4364 448.404 63.2444 447.996C63.0524 447.588 62.7824 447.276 62.4344 447.06C62.0864 446.844 61.6784 446.736 61.2104 446.736C60.6464 446.736 60.1844 446.868 59.8244 447.132C59.4644 447.384 59.2004 447.714 59.0324 448.122C58.8644 448.53 58.7804 448.968 58.7804 449.436C58.7804 449.892 58.8524 450.33 58.9964 450.75C59.1524 451.158 59.4044 451.494 59.7524 451.758C60.1004 452.022 60.5564 452.154 61.1204 452.154ZM66.5258 453V445.674H67.6958V453H66.5258ZM67.1198 444.576C66.8198 444.576 66.6158 444.498 66.5078 444.342C66.3998 444.186 66.3458 444.006 66.3458 443.802C66.3458 443.61 66.3998 443.442 66.5078 443.298C66.6158 443.142 66.8198 443.064 67.1198 443.064C67.4198 443.064 67.6178 443.142 67.7138 443.298C67.8098 443.442 67.8578 443.61 67.8578 443.802C67.8578 444.006 67.8098 444.186 67.7138 444.342C67.6178 444.498 67.4198 444.576 67.1198 444.576ZM69.3149 453V445.674H70.3049L70.5029 447.492H70.5389C70.5629 447.432 70.6169 447.306 70.7009 447.114C70.7969 446.91 70.9409 446.7 71.1329 446.484C71.3249 446.268 71.5829 446.082 71.9069 445.926C72.2429 445.758 72.6629 445.674 73.1669 445.674C73.6709 445.674 74.0909 445.752 74.4269 445.908C74.7629 446.052 75.0269 446.256 75.2189 446.52C75.4229 446.772 75.5729 447.06 75.6689 447.384C75.7649 447.708 75.8249 448.044 75.8489 448.392C75.8849 448.728 75.9029 449.058 75.9029 449.382V453H74.7869V449.382C74.7869 448.854 74.7269 448.392 74.6069 447.996C74.4989 447.588 74.3009 447.276 74.0129 447.06C73.7249 446.832 73.3169 446.718 72.7889 446.718C72.2489 446.718 71.8109 446.85 71.4749 447.114C71.1389 447.366 70.8929 447.708 70.7369 448.14C70.5809 448.56 70.5029 449.022 70.5029 449.526V453H69.3149ZM79.1481 456.024V454.926H82.8021V451.38H82.7661C82.7421 451.44 82.6761 451.566 82.5681 451.758C82.4721 451.95 82.3161 452.154 82.1001 452.37C81.8961 452.586 81.6261 452.778 81.2901 452.946C80.9661 453.102 80.5701 453.18 80.1021 453.18C79.3941 453.18 78.8001 453.018 78.3201 452.694C77.8521 452.358 77.4981 451.908 77.2581 451.344C77.0181 450.78 76.8981 450.144 76.8981 449.436C76.8981 448.704 77.0181 448.056 77.2581 447.492C77.4981 446.916 77.8581 446.472 78.3381 446.16C78.8181 445.836 79.4121 445.674 80.1201 445.674C80.6001 445.674 81.0081 445.758 81.3441 445.926C81.6801 446.082 81.9441 446.274 82.1361 446.502C82.3401 446.73 82.4901 446.94 82.5861 447.132C82.6821 447.324 82.7421 447.45 82.7661 447.51H82.8021V445.674H83.9901V454.26C83.9901 454.644 83.9421 454.968 83.8461 455.232C83.7621 455.496 83.6061 455.694 83.3781 455.826C83.1621 455.958 82.8681 456.024 82.4961 456.024H79.1481ZM80.3541 452.154C80.8341 452.154 81.2541 452.046 81.6141 451.83C81.9861 451.614 82.2681 451.302 82.4601 450.894C82.6641 450.474 82.7661 449.988 82.7661 449.436C82.7661 448.884 82.6701 448.404 82.4781 447.996C82.2981 447.588 82.0341 447.276 81.6861 447.06C81.3381 446.844 80.9301 446.736 80.4621 446.736C79.8981 446.736 79.4361 446.868 79.0761 447.132C78.7161 447.384 78.4521 447.714 78.2841 448.122C78.1161 448.53 78.0321 448.968 78.0321 449.436C78.0321 449.892 78.1041 450.33 78.2481 450.75C78.4041 451.158 78.6501 451.494 78.9861 451.758C79.3341 452.022 79.7901 452.154 80.3541 452.154ZM95.9134 442.866H97.1554L96.5254 444.396L94.0054 453H92.1154L89.2354 442.866H90.4594L93.0694 452.46L95.9134 442.866ZM102.591 442.866H103.851L100.863 453H98.9734L96.5254 444.396L95.9134 442.866H97.1554L99.9094 452.46L102.591 442.866ZM107.854 453.18C107.05 453.18 106.384 453 105.856 452.64C105.34 452.268 104.956 451.794 104.704 451.218C104.464 450.63 104.344 450.024 104.344 449.4C104.344 448.716 104.476 448.092 104.74 447.528C105.016 446.952 105.412 446.496 105.928 446.16C106.456 445.824 107.086 445.656 107.818 445.656C108.454 445.656 109.012 445.794 109.492 446.07C109.984 446.334 110.374 446.718 110.662 447.222C110.962 447.726 111.13 448.32 111.166 449.004C111.178 449.052 111.184 449.124 111.184 449.22C111.184 449.304 111.184 449.382 111.184 449.454H105.46C105.46 450.306 105.664 450.978 106.072 451.47C106.492 451.95 107.08 452.19 107.836 452.19C108.4 452.19 108.88 452.046 109.276 451.758C109.684 451.47 109.936 451.08 110.032 450.588H111.166C111.082 451.08 110.896 451.524 110.608 451.92C110.32 452.316 109.942 452.628 109.474 452.856C109.006 453.072 108.466 453.18 107.854 453.18ZM105.496 448.824H109.996C109.996 448.632 109.954 448.416 109.87 448.176C109.798 447.924 109.678 447.684 109.51 447.456C109.342 447.216 109.12 447.018 108.844 446.862C108.568 446.706 108.22 446.628 107.8 446.628C107.428 446.628 107.104 446.694 106.828 446.826C106.552 446.946 106.318 447.114 106.126 447.33C105.946 447.534 105.802 447.768 105.694 448.032C105.598 448.296 105.532 448.56 105.496 448.824ZM116.713 453.18C116.233 453.18 115.825 453.102 115.489 452.946C115.165 452.778 114.895 452.586 114.679 452.37C114.475 452.154 114.319 451.95 114.211 451.758C114.103 451.566 114.037 451.44 114.013 451.38H113.977L113.797 453H112.789V442.866H113.995V447.51H114.031C114.055 447.45 114.115 447.324 114.211 447.132C114.307 446.94 114.451 446.73 114.643 446.502C114.847 446.274 115.117 446.082 115.453 445.926C115.789 445.758 116.203 445.674 116.695 445.674C117.403 445.674 117.991 445.836 118.459 446.16C118.939 446.484 119.299 446.934 119.539 447.51C119.779 448.074 119.899 448.716 119.899 449.436C119.899 450.156 119.779 450.798 119.539 451.362C119.299 451.926 118.945 452.37 118.477 452.694C118.009 453.018 117.421 453.18 116.713 453.18ZM116.425 452.154C117.001 452.154 117.457 452.022 117.793 451.758C118.141 451.494 118.387 451.158 118.531 450.75C118.687 450.33 118.765 449.892 118.765 449.436C118.765 448.968 118.681 448.53 118.513 448.122C118.345 447.714 118.081 447.384 117.721 447.132C117.361 446.868 116.899 446.736 116.335 446.736C115.867 446.736 115.459 446.844 115.111 447.06C114.763 447.276 114.493 447.588 114.301 447.996C114.109 448.404 114.013 448.884 114.013 449.436C114.013 449.988 114.115 450.474 114.319 450.894C114.523 451.302 114.805 451.614 115.165 451.83C115.537 452.046 115.957 452.154 116.425 452.154ZM121.421 454.584V453.72H121.745C122.033 453.72 122.213 453.654 122.285 453.522C122.369 453.39 122.411 453.222 122.411 453.018C122.099 453.042 121.865 452.982 121.709 452.838C121.565 452.694 121.493 452.49 121.493 452.226C121.493 452.022 121.547 451.848 121.655 451.704C121.763 451.548 121.961 451.47 122.249 451.47C122.501 451.47 122.687 451.548 122.807 451.704C122.927 451.848 122.987 452.118 122.987 452.514C122.987 452.922 122.945 453.282 122.861 453.594C122.789 453.906 122.663 454.146 122.483 454.314C122.315 454.494 122.081 454.584 121.781 454.584H121.421ZM129.176 453V442.866H131.174L134.468 452.478H134.504L137.744 442.866H139.742V453H138.572L138.626 443.46H138.59L135.314 453H133.604L130.328 443.46H130.292L130.346 453H129.176ZM144.803 453.18C144.023 453.18 143.369 453.018 142.841 452.694C142.325 452.37 141.935 451.926 141.671 451.362C141.419 450.798 141.293 450.156 141.293 449.436C141.293 448.704 141.419 448.056 141.671 447.492C141.935 446.916 142.325 446.466 142.841 446.142C143.369 445.818 144.023 445.656 144.803 445.656C145.943 445.656 146.813 446.004 147.413 446.7C148.013 447.384 148.313 448.296 148.313 449.436C148.313 450.144 148.187 450.78 147.935 451.344C147.683 451.908 147.299 452.358 146.783 452.694C146.267 453.018 145.607 453.18 144.803 453.18ZM144.803 452.172C145.439 452.172 145.925 452.034 146.261 451.758C146.597 451.482 146.831 451.134 146.963 450.714C147.107 450.282 147.179 449.844 147.179 449.4C147.179 448.956 147.107 448.518 146.963 448.086C146.831 447.654 146.597 447.3 146.261 447.024C145.925 446.748 145.439 446.61 144.803 446.61C144.191 446.61 143.705 446.748 143.345 447.024C142.997 447.3 142.757 447.654 142.625 448.086C142.493 448.518 142.427 448.956 142.427 449.4C142.427 449.844 142.493 450.282 142.625 450.714C142.757 451.134 142.997 451.482 143.345 451.758C143.705 452.034 144.191 452.172 144.803 452.172ZM153.785 453.18C153.305 453.18 152.897 453.102 152.561 452.946C152.237 452.778 151.967 452.586 151.751 452.37C151.547 452.154 151.391 451.95 151.283 451.758C151.175 451.566 151.109 451.44 151.085 451.38H151.049L150.869 453H149.861V442.866H151.067V447.51H151.103C151.127 447.45 151.187 447.324 151.283 447.132C151.379 446.94 151.523 446.73 151.715 446.502C151.919 446.274 152.189 446.082 152.525 445.926C152.861 445.758 153.275 445.674 153.767 445.674C154.475 445.674 155.063 445.836 155.531 446.16C156.011 446.484 156.371 446.934 156.611 447.51C156.851 448.074 156.971 448.716 156.971 449.436C156.971 450.156 156.851 450.798 156.611 451.362C156.371 451.926 156.017 452.37 155.549 452.694C155.081 453.018 154.493 453.18 153.785 453.18ZM153.497 452.154C154.073 452.154 154.529 452.022 154.865 451.758C155.213 451.494 155.459 451.158 155.603 450.75C155.759 450.33 155.837 449.892 155.837 449.436C155.837 448.968 155.753 448.53 155.585 448.122C155.417 447.714 155.153 447.384 154.793 447.132C154.433 446.868 153.971 446.736 153.407 446.736C152.939 446.736 152.531 446.844 152.183 447.06C151.835 447.276 151.565 447.588 151.373 447.996C151.181 448.404 151.085 448.884 151.085 449.436C151.085 449.988 151.187 450.474 151.391 450.894C151.595 451.302 151.877 451.614 152.237 451.83C152.609 452.046 153.029 452.154 153.497 452.154ZM158.53 453V445.674H159.7V453H158.53ZM159.124 444.576C158.824 444.576 158.62 444.498 158.512 444.342C158.404 444.186 158.35 444.006 158.35 443.802C158.35 443.61 158.404 443.442 158.512 443.298C158.62 443.142 158.824 443.064 159.124 443.064C159.424 443.064 159.622 443.142 159.718 443.298C159.814 443.442 159.862 443.61 159.862 443.802C159.862 444.006 159.814 444.186 159.718 444.342C159.622 444.498 159.424 444.576 159.124 444.576ZM161.571 453V442.866H162.705V453H161.571ZM167.655 453.18C166.851 453.18 166.185 453 165.657 452.64C165.141 452.268 164.757 451.794 164.505 451.218C164.265 450.63 164.145 450.024 164.145 449.4C164.145 448.716 164.277 448.092 164.541 447.528C164.817 446.952 165.213 446.496 165.729 446.16C166.257 445.824 166.887 445.656 167.619 445.656C168.255 445.656 168.813 445.794 169.293 446.07C169.785 446.334 170.175 446.718 170.463 447.222C170.763 447.726 170.931 448.32 170.967 449.004C170.979 449.052 170.985 449.124 170.985 449.22C170.985 449.304 170.985 449.382 170.985 449.454H165.261C165.261 450.306 165.465 450.978 165.873 451.47C166.293 451.95 166.881 452.19 167.637 452.19C168.201 452.19 168.681 452.046 169.077 451.758C169.485 451.47 169.737 451.08 169.833 450.588H170.967C170.883 451.08 170.697 451.524 170.409 451.92C170.121 452.316 169.743 452.628 169.275 452.856C168.807 453.072 168.267 453.18 167.655 453.18ZM165.297 448.824H169.797C169.797 448.632 169.755 448.416 169.671 448.176C169.599 447.924 169.479 447.684 169.311 447.456C169.143 447.216 168.921 447.018 168.645 446.862C168.369 446.706 168.021 446.628 167.601 446.628C167.229 446.628 166.905 446.694 166.629 446.826C166.353 446.946 166.119 447.114 165.927 447.33C165.747 447.534 165.603 447.768 165.495 448.032C165.399 448.296 165.333 448.56 165.297 448.824ZM179.291 453.162C178.619 453.162 178.067 453 177.635 452.676C177.203 452.34 176.879 451.89 176.663 451.326C176.459 450.762 176.357 450.12 176.357 449.4C176.357 448.656 176.465 448.002 176.681 447.438C176.897 446.874 177.221 446.43 177.653 446.106C178.097 445.77 178.643 445.602 179.291 445.602C179.675 445.602 180.005 445.656 180.281 445.764C180.569 445.86 180.815 445.992 181.019 446.16C181.223 446.328 181.391 446.508 181.523 446.7C181.667 446.88 181.775 447.054 181.847 447.222H181.865V445.674H183.053V453H182.063L181.883 451.578H181.847C181.763 451.758 181.655 451.944 181.523 452.136C181.391 452.316 181.217 452.484 181.001 452.64C180.797 452.796 180.551 452.922 180.263 453.018C179.987 453.114 179.663 453.162 179.291 453.162ZM179.741 452.136C180.245 452.136 180.647 452.028 180.947 451.812C181.259 451.584 181.487 451.266 181.631 450.858C181.775 450.45 181.847 449.97 181.847 449.418C181.847 448.83 181.769 448.332 181.613 447.924C181.469 447.516 181.241 447.21 180.929 447.006C180.617 446.79 180.221 446.682 179.741 446.682C179.213 446.682 178.781 446.802 178.445 447.042C178.121 447.282 177.887 447.606 177.743 448.014C177.599 448.422 177.527 448.884 177.527 449.4C177.527 449.928 177.599 450.402 177.743 450.822C177.899 451.23 178.139 451.554 178.463 451.794C178.799 452.022 179.225 452.136 179.741 452.136ZM184.399 453V445.674H185.389L185.587 447.492H185.623C185.647 447.432 185.701 447.306 185.785 447.114C185.881 446.91 186.025 446.7 186.217 446.484C186.409 446.268 186.667 446.082 186.991 445.926C187.327 445.758 187.747 445.674 188.251 445.674C188.755 445.674 189.175 445.752 189.511 445.908C189.847 446.052 190.111 446.256 190.303 446.52C190.507 446.772 190.657 447.06 190.753 447.384C190.849 447.708 190.909 448.044 190.933 448.392C190.969 448.728 190.987 449.058 190.987 449.382V453H189.871V449.382C189.871 448.854 189.811 448.392 189.691 447.996C189.583 447.588 189.385 447.276 189.097 447.06C188.809 446.832 188.401 446.718 187.873 446.718C187.333 446.718 186.895 446.85 186.559 447.114C186.223 447.366 185.977 447.708 185.821 448.14C185.665 448.56 185.587 449.022 185.587 449.526V453H184.399ZM195.762 453.18C195.066 453.18 194.478 453.018 193.998 452.694C193.53 452.358 193.176 451.908 192.936 451.344C192.696 450.78 192.576 450.144 192.576 449.436C192.576 448.704 192.696 448.056 192.936 447.492C193.188 446.916 193.548 446.472 194.016 446.16C194.496 445.836 195.084 445.674 195.78 445.674C196.272 445.674 196.686 445.758 197.022 445.926C197.358 446.082 197.622 446.274 197.814 446.502C198.018 446.73 198.168 446.94 198.264 447.132C198.36 447.324 198.42 447.45 198.444 447.51H198.48V442.866H199.668V453H198.678L198.498 451.38H198.462C198.438 451.44 198.372 451.566 198.264 451.758C198.156 451.95 197.994 452.154 197.778 452.37C197.574 452.586 197.304 452.778 196.968 452.946C196.644 453.102 196.242 453.18 195.762 453.18ZM196.05 452.154C196.53 452.154 196.95 452.046 197.31 451.83C197.67 451.614 197.952 451.302 198.156 450.894C198.36 450.474 198.462 449.988 198.462 449.436C198.462 448.884 198.366 448.404 198.174 447.996C197.982 447.588 197.712 447.276 197.364 447.06C197.016 446.844 196.608 446.736 196.14 446.736C195.576 446.736 195.114 446.868 194.754 447.132C194.394 447.384 194.13 447.714 193.962 448.122C193.794 448.53 193.71 448.968 193.71 449.436C193.71 449.892 193.782 450.33 193.926 450.75C194.082 451.158 194.334 451.494 194.682 451.758C195.03 452.022 195.486 452.154 196.05 452.154ZM210.173 453.18C209.249 453.18 208.409 452.988 207.653 452.604C206.909 452.208 206.315 451.62 205.871 450.84C205.439 450.06 205.229 449.1 205.241 447.96C205.241 446.796 205.451 445.824 205.871 445.044C206.303 444.264 206.897 443.676 207.653 443.28C208.409 442.884 209.273 442.686 210.245 442.686C211.073 442.686 211.805 442.836 212.441 443.136C213.077 443.436 213.593 443.868 213.989 444.432C214.397 444.984 214.673 445.65 214.817 446.43H213.611C213.503 445.818 213.287 445.32 212.963 444.936C212.639 444.54 212.243 444.246 211.775 444.054C211.307 443.862 210.797 443.766 210.245 443.766C209.045 443.766 208.103 444.12 207.419 444.828C206.735 445.536 206.393 446.556 206.393 447.888C206.393 449.268 206.729 450.318 207.401 451.038C208.073 451.746 209.003 452.1 210.191 452.1C210.791 452.1 211.331 452.004 211.811 451.812C212.303 451.608 212.711 451.308 213.035 450.912C213.359 450.516 213.569 450.024 213.665 449.436H214.889C214.757 450.204 214.487 450.87 214.079 451.434C213.671 451.986 213.137 452.418 212.477 452.73C211.829 453.03 211.061 453.18 210.173 453.18ZM218.916 453.18C218.448 453.18 218.046 453.108 217.71 452.964C217.386 452.82 217.116 452.628 216.9 452.388C216.696 452.136 216.54 451.854 216.432 451.542C216.324 451.218 216.246 450.882 216.198 450.534C216.162 450.174 216.144 449.814 216.144 449.454V445.674H217.296V449.472C217.296 449.952 217.344 450.396 217.44 450.804C217.548 451.212 217.746 451.536 218.034 451.776C218.322 452.016 218.748 452.136 219.312 452.136C219.852 452.136 220.272 452.01 220.572 451.758C220.884 451.506 221.112 451.188 221.256 450.804C221.4 450.408 221.484 449.994 221.508 449.562V445.674H222.696V453H221.706L221.508 451.362H221.472C221.424 451.518 221.34 451.698 221.22 451.902C221.112 452.106 220.956 452.304 220.752 452.496C220.548 452.688 220.29 452.85 219.978 452.982C219.678 453.114 219.324 453.18 218.916 453.18ZM227.201 453.18C226.793 453.18 226.421 453.12 226.085 453C225.749 452.892 225.455 452.742 225.203 452.55C224.963 452.358 224.753 452.154 224.573 451.938C224.405 451.71 224.279 451.482 224.195 451.254C224.111 451.026 224.069 450.822 224.069 450.642H225.185C225.185 450.654 225.197 450.744 225.221 450.912C225.245 451.08 225.317 451.272 225.437 451.488C225.557 451.704 225.755 451.896 226.031 452.064C226.307 452.22 226.697 452.298 227.201 452.298C227.561 452.298 227.885 452.256 228.173 452.172C228.461 452.088 228.683 451.956 228.839 451.776C229.007 451.596 229.085 451.374 229.073 451.11C229.073 450.762 228.953 450.498 228.713 450.318C228.485 450.126 228.185 449.982 227.813 449.886C227.441 449.778 227.051 449.676 226.643 449.58C226.235 449.484 225.845 449.364 225.473 449.22C225.101 449.064 224.801 448.848 224.573 448.572C224.345 448.296 224.237 447.912 224.249 447.42C224.261 446.82 224.531 446.346 225.059 445.998C225.599 445.638 226.289 445.458 227.129 445.458C227.477 445.458 227.831 445.5 228.191 445.584C228.563 445.668 228.899 445.806 229.199 445.998C229.511 446.178 229.757 446.436 229.937 446.772C230.117 447.096 230.195 447.504 230.171 447.996H229.091C229.103 447.66 229.043 447.39 228.911 447.186C228.791 446.97 228.623 446.808 228.407 446.7C228.203 446.58 227.981 446.502 227.741 446.466C227.513 446.418 227.297 446.394 227.093 446.394C226.577 446.394 226.151 446.49 225.815 446.682C225.491 446.874 225.329 447.144 225.329 447.492C225.329 447.816 225.443 448.068 225.671 448.248C225.911 448.428 226.211 448.572 226.571 448.68C226.943 448.776 227.333 448.872 227.741 448.968C228.161 449.052 228.557 449.172 228.929 449.328C229.301 449.484 229.601 449.706 229.829 449.994C230.069 450.282 230.189 450.678 230.189 451.182C230.189 451.65 230.057 452.034 229.793 452.334C229.541 452.622 229.187 452.838 228.731 452.982C228.287 453.114 227.777 453.18 227.201 453.18ZM233.291 453C232.859 453 232.553 452.88 232.373 452.64C232.193 452.4 232.103 452.07 232.103 451.65V446.376H233.219V452.064H234.929V453H233.291ZM230.951 446.538V445.674C231.239 445.674 231.467 445.662 231.635 445.638C231.815 445.602 231.947 445.53 232.031 445.422C232.115 445.302 232.169 445.11 232.193 444.846C232.217 444.582 232.229 444.228 232.229 443.784H233.219V445.674H234.911V446.538H230.951ZM239.514 453.18C238.734 453.18 238.08 453.018 237.552 452.694C237.036 452.37 236.646 451.926 236.382 451.362C236.13 450.798 236.004 450.156 236.004 449.436C236.004 448.704 236.13 448.056 236.382 447.492C236.646 446.916 237.036 446.466 237.552 446.142C238.08 445.818 238.734 445.656 239.514 445.656C240.654 445.656 241.524 446.004 242.124 446.7C242.724 447.384 243.024 448.296 243.024 449.436C243.024 450.144 242.898 450.78 242.646 451.344C242.394 451.908 242.01 452.358 241.494 452.694C240.978 453.018 240.318 453.18 239.514 453.18ZM239.514 452.172C240.15 452.172 240.636 452.034 240.972 451.758C241.308 451.482 241.542 451.134 241.674 450.714C241.818 450.282 241.89 449.844 241.89 449.4C241.89 448.956 241.818 448.518 241.674 448.086C241.542 447.654 241.308 447.3 240.972 447.024C240.636 446.748 240.15 446.61 239.514 446.61C238.902 446.61 238.416 446.748 238.056 447.024C237.708 447.3 237.468 447.654 237.336 448.086C237.204 448.518 237.138 448.956 237.138 449.4C237.138 449.844 237.204 450.282 237.336 450.714C237.468 451.134 237.708 451.482 238.056 451.758C238.416 452.034 238.902 452.172 239.514 452.172ZM244.428 453V445.674H245.508L245.562 447.492H245.598C245.622 447.408 245.676 447.27 245.76 447.078C245.856 446.874 245.988 446.664 246.156 446.448C246.336 446.232 246.57 446.052 246.858 445.908C247.146 445.752 247.512 445.674 247.956 445.674C248.412 445.674 248.784 445.764 249.072 445.944C249.36 446.112 249.582 446.334 249.738 446.61C249.894 446.886 250.014 447.18 250.098 447.492H250.134C250.158 447.396 250.218 447.252 250.314 447.06C250.41 446.868 250.554 446.664 250.746 446.448C250.938 446.232 251.184 446.052 251.484 445.908C251.796 445.752 252.174 445.674 252.618 445.674C253.086 445.674 253.47 445.77 253.77 445.962C254.082 446.142 254.328 446.388 254.508 446.7C254.688 447 254.814 447.318 254.886 447.654C254.97 447.99 255.024 448.314 255.048 448.626C255.072 448.938 255.084 449.19 255.084 449.382V453H253.95V449.382C253.95 449.178 253.938 448.932 253.914 448.644C253.902 448.344 253.842 448.05 253.734 447.762C253.638 447.462 253.476 447.216 253.248 447.024C253.02 446.82 252.696 446.718 252.276 446.718C251.82 446.718 251.442 446.85 251.142 447.114C250.854 447.378 250.644 447.726 250.512 448.158C250.38 448.578 250.314 449.034 250.314 449.526V453H249.198V449.382C249.198 449.178 249.186 448.932 249.162 448.644C249.138 448.344 249.078 448.05 248.982 447.762C248.886 447.462 248.724 447.216 248.496 447.024C248.268 446.82 247.944 446.718 247.524 446.718C247.056 446.718 246.678 446.85 246.39 447.114C246.102 447.378 245.892 447.726 245.76 448.158C245.628 448.578 245.562 449.034 245.562 449.526V453H244.428ZM264.934 453.234C264.406 453.234 263.884 453.168 263.368 453.036C262.864 452.904 262.402 452.706 261.982 452.442C261.574 452.166 261.244 451.812 260.992 451.38C260.752 450.948 260.632 450.438 260.632 449.85H261.784C261.784 449.886 261.796 449.988 261.82 450.156C261.844 450.324 261.904 450.522 262 450.75C262.108 450.978 262.276 451.2 262.504 451.416C262.732 451.632 263.05 451.812 263.458 451.956C263.866 452.1 264.388 452.172 265.024 452.172C265.552 452.172 265.984 452.112 266.32 451.992C266.668 451.86 266.932 451.704 267.112 451.524C267.304 451.332 267.436 451.146 267.508 450.966C267.58 450.774 267.616 450.618 267.616 450.498C267.628 450.078 267.514 449.742 267.274 449.49C267.034 449.226 266.71 449.022 266.302 448.878C265.906 448.722 265.468 448.584 264.988 448.464C264.508 448.344 264.028 448.218 263.548 448.086C263.08 447.942 262.648 447.762 262.252 447.546C261.856 447.33 261.544 447.042 261.316 446.682C261.088 446.31 260.986 445.842 261.01 445.278C261.034 444.738 261.22 444.276 261.568 443.892C261.916 443.508 262.384 443.214 262.972 443.01C263.56 442.794 264.22 442.686 264.952 442.686C265.648 442.686 266.284 442.812 266.86 443.064C267.436 443.304 267.898 443.67 268.246 444.162C268.594 444.654 268.756 445.266 268.732 445.998H267.598C267.622 445.542 267.538 445.17 267.346 444.882C267.154 444.594 266.908 444.372 266.608 444.216C266.308 444.048 265.996 443.934 265.672 443.874C265.36 443.802 265.084 443.766 264.844 443.766C264.088 443.766 263.464 443.916 262.972 444.216C262.492 444.516 262.24 444.906 262.216 445.386C262.216 445.806 262.336 446.142 262.576 446.394C262.816 446.646 263.134 446.85 263.53 447.006C263.926 447.15 264.364 447.276 264.844 447.384C265.336 447.492 265.816 447.618 266.284 447.762C266.764 447.894 267.202 448.068 267.598 448.284C267.994 448.5 268.306 448.794 268.534 449.166C268.762 449.538 268.864 450.012 268.84 450.588C268.816 451.152 268.63 451.632 268.282 452.028C267.934 452.412 267.472 452.712 266.896 452.928C266.32 453.132 265.666 453.234 264.934 453.234ZM273.545 453.18C272.765 453.18 272.111 453.018 271.583 452.694C271.067 452.37 270.677 451.926 270.413 451.362C270.161 450.798 270.035 450.156 270.035 449.436C270.035 448.704 270.161 448.056 270.413 447.492C270.677 446.916 271.067 446.466 271.583 446.142C272.111 445.818 272.765 445.656 273.545 445.656C274.685 445.656 275.555 446.004 276.155 446.7C276.755 447.384 277.055 448.296 277.055 449.436C277.055 450.144 276.929 450.78 276.677 451.344C276.425 451.908 276.041 452.358 275.525 452.694C275.009 453.018 274.349 453.18 273.545 453.18ZM273.545 452.172C274.181 452.172 274.667 452.034 275.003 451.758C275.339 451.482 275.573 451.134 275.705 450.714C275.849 450.282 275.921 449.844 275.921 449.4C275.921 448.956 275.849 448.518 275.705 448.086C275.573 447.654 275.339 447.3 275.003 447.024C274.667 446.748 274.181 446.61 273.545 446.61C272.933 446.61 272.447 446.748 272.087 447.024C271.739 447.3 271.499 447.654 271.367 448.086C271.235 448.518 271.169 448.956 271.169 449.4C271.169 449.844 271.235 450.282 271.367 450.714C271.499 451.134 271.739 451.482 272.087 451.758C272.447 452.034 272.933 452.172 273.545 452.172ZM278.711 453V442.866H279.845V453H278.711ZM284.183 453.18C283.715 453.18 283.313 453.108 282.977 452.964C282.653 452.82 282.383 452.628 282.167 452.388C281.963 452.136 281.807 451.854 281.699 451.542C281.591 451.218 281.513 450.882 281.465 450.534C281.429 450.174 281.411 449.814 281.411 449.454V445.674H282.563V449.472C282.563 449.952 282.611 450.396 282.707 450.804C282.815 451.212 283.013 451.536 283.301 451.776C283.589 452.016 284.015 452.136 284.579 452.136C285.119 452.136 285.539 452.01 285.839 451.758C286.151 451.506 286.379 451.188 286.523 450.804C286.667 450.408 286.751 449.994 286.775 449.562V445.674H287.963V453H286.973L286.775 451.362H286.739C286.691 451.518 286.607 451.698 286.487 451.902C286.379 452.106 286.223 452.304 286.019 452.496C285.815 452.688 285.557 452.85 285.245 452.982C284.945 453.114 284.591 453.18 284.183 453.18ZM291.317 453C290.885 453 290.579 452.88 290.399 452.64C290.219 452.4 290.129 452.07 290.129 451.65V446.376H291.245V452.064H292.955V453H291.317ZM288.977 446.538V445.674C289.265 445.674 289.493 445.662 289.661 445.638C289.841 445.602 289.973 445.53 290.057 445.422C290.141 445.302 290.195 445.11 290.219 444.846C290.243 444.582 290.255 444.228 290.255 443.784H291.245V445.674H292.937V446.538H288.977ZM294.707 453V445.674H295.877V453H294.707ZM295.301 444.576C295.001 444.576 294.797 444.498 294.689 444.342C294.581 444.186 294.527 444.006 294.527 443.802C294.527 443.61 294.581 443.442 294.689 443.298C294.797 443.142 295.001 443.064 295.301 443.064C295.601 443.064 295.799 443.142 295.895 443.298C295.991 443.442 296.039 443.61 296.039 443.802C296.039 444.006 295.991 444.186 295.895 444.342C295.799 444.498 295.601 444.576 295.301 444.576ZM300.809 453.18C300.029 453.18 299.375 453.018 298.847 452.694C298.331 452.37 297.941 451.926 297.677 451.362C297.425 450.798 297.299 450.156 297.299 449.436C297.299 448.704 297.425 448.056 297.677 447.492C297.941 446.916 298.331 446.466 298.847 446.142C299.375 445.818 300.029 445.656 300.809 445.656C301.949 445.656 302.819 446.004 303.419 446.7C304.019 447.384 304.319 448.296 304.319 449.436C304.319 450.144 304.193 450.78 303.941 451.344C303.689 451.908 303.305 452.358 302.789 452.694C302.273 453.018 301.613 453.18 300.809 453.18ZM300.809 452.172C301.445 452.172 301.931 452.034 302.267 451.758C302.603 451.482 302.837 451.134 302.969 450.714C303.113 450.282 303.185 449.844 303.185 449.4C303.185 448.956 303.113 448.518 302.969 448.086C302.837 447.654 302.603 447.3 302.267 447.024C301.931 446.748 301.445 446.61 300.809 446.61C300.197 446.61 299.711 446.748 299.351 447.024C299.003 447.3 298.763 447.654 298.631 448.086C298.499 448.518 298.433 448.956 298.433 449.4C298.433 449.844 298.499 450.282 298.631 450.714C298.763 451.134 299.003 451.482 299.351 451.758C299.711 452.034 300.197 452.172 300.809 452.172ZM305.723 453V445.674H306.713L306.911 447.492H306.947C306.971 447.432 307.025 447.306 307.109 447.114C307.205 446.91 307.349 446.7 307.541 446.484C307.733 446.268 307.991 446.082 308.315 445.926C308.651 445.758 309.071 445.674 309.575 445.674C310.079 445.674 310.499 445.752 310.835 445.908C311.171 446.052 311.435 446.256 311.627 446.52C311.831 446.772 311.981 447.06 312.077 447.384C312.173 447.708 312.233 448.044 312.257 448.392C312.293 448.728 312.311 449.058 312.311 449.382V453H311.195V449.382C311.195 448.854 311.135 448.392 311.015 447.996C310.907 447.588 310.709 447.276 310.421 447.06C310.133 446.832 309.725 446.718 309.197 446.718C308.657 446.718 308.219 446.85 307.883 447.114C307.547 447.366 307.301 447.708 307.145 448.14C306.989 448.56 306.911 449.022 306.911 449.526V453H305.723ZM316.744 453.18C316.336 453.18 315.964 453.12 315.628 453C315.292 452.892 314.998 452.742 314.746 452.55C314.506 452.358 314.296 452.154 314.116 451.938C313.948 451.71 313.822 451.482 313.738 451.254C313.654 451.026 313.612 450.822 313.612 450.642H314.728C314.728 450.654 314.74 450.744 314.764 450.912C314.788 451.08 314.86 451.272 314.98 451.488C315.1 451.704 315.298 451.896 315.574 452.064C315.85 452.22 316.24 452.298 316.744 452.298C317.104 452.298 317.428 452.256 317.716 452.172C318.004 452.088 318.226 451.956 318.382 451.776C318.55 451.596 318.628 451.374 318.616 451.11C318.616 450.762 318.496 450.498 318.256 450.318C318.028 450.126 317.728 449.982 317.356 449.886C316.984 449.778 316.594 449.676 316.186 449.58C315.778 449.484 315.388 449.364 315.016 449.22C314.644 449.064 314.344 448.848 314.116 448.572C313.888 448.296 313.78 447.912 313.792 447.42C313.804 446.82 314.074 446.346 314.602 445.998C315.142 445.638 315.832 445.458 316.672 445.458C317.02 445.458 317.374 445.5 317.734 445.584C318.106 445.668 318.442 445.806 318.742 445.998C319.054 446.178 319.3 446.436 319.48 446.772C319.66 447.096 319.738 447.504 319.714 447.996H318.634C318.646 447.66 318.586 447.39 318.454 447.186C318.334 446.97 318.166 446.808 317.95 446.7C317.746 446.58 317.524 446.502 317.284 446.466C317.056 446.418 316.84 446.394 316.636 446.394C316.12 446.394 315.694 446.49 315.358 446.682C315.034 446.874 314.872 447.144 314.872 447.492C314.872 447.816 314.986 448.068 315.214 448.248C315.454 448.428 315.754 448.572 316.114 448.68C316.486 448.776 316.876 448.872 317.284 448.968C317.704 449.052 318.1 449.172 318.472 449.328C318.844 449.484 319.144 449.706 319.372 449.994C319.612 450.282 319.732 450.678 319.732 451.182C319.732 451.65 319.6 452.034 319.336 452.334C319.084 452.622 318.73 452.838 318.274 452.982C317.83 453.114 317.32 453.18 316.744 453.18ZM321.7 453C321.4 453 321.196 452.922 321.088 452.766C320.992 452.598 320.944 452.406 320.944 452.19C320.944 451.962 320.998 451.77 321.106 451.614C321.214 451.458 321.412 451.38 321.7 451.38C322 451.38 322.198 451.458 322.294 451.614C322.402 451.77 322.456 451.962 322.456 452.19C322.456 452.418 322.402 452.61 322.294 452.766C322.198 452.922 322 453 321.7 453Z" fill="white"/>
<path d="M205.7 214.275H314.3V288.563H320V191.438H314.3V208.575H205.7V191.438H200V288.563H205.7V214.275Z" fill="white"/>
<path d="M314.298 288.563H205.698V294.301H314.298V288.563Z" fill="white"/>
<path d="M217.138 225.713V277.163H302.863V225.713H217.138ZM251.413 254.288H245.713V259.988H240.013V265.725H234.276V259.988H240.013V254.288H245.713V248.588H240.013V242.85H234.276V237.15H240.013V242.85H245.713V248.588H251.413V254.288ZM285.726 254.288H262.851V248.588H285.726V254.288Z" fill="white"/>
<path d="M240.011 197.137H234.274V202.874H240.011V197.137Z" fill="white"/>
<path d="M228.574 197.137H222.874V202.874H228.574V197.137Z" fill="white"/>
<path d="M217.136 197.137H211.436V202.874H217.136V197.137Z" fill="white"/>
<path d="M314.298 185.7H205.698V191.438H314.298V185.7Z" fill="white"/>
</svg>
