<svg width="120" height="120" viewBox="0 0 120 120" fill="none" xmlns="http://www.w3.org/2000/svg">
<g clip-path="url(#clip0_203_678)">
<path d="M80.0066 28.575V34.275H85.7441V39.975H91.4441V45.7125H102.882V39.975H108.582V28.575H102.882V22.8375H108.582V17.1375H114.282V5.7H108.582V0H97.1441V5.7H91.4441V11.4375H85.7441V5.7H74.3066V11.4375H68.5691V22.8375H74.3066V28.575H80.0066Z" fill="white"/>
<path d="M85.7441 39.9756H80.0066V45.7131H85.7441V39.9756Z" fill="white"/>
<path d="M80.0074 45.7119H74.3074V51.4119H80.0074V45.7119Z" fill="white"/>
<path d="M74.3066 28.5752H68.5691V34.2752H74.3066V28.5752Z" fill="white"/>
<path d="M57.1707 51.4119V45.7119H51.4332V51.4119H45.7332V57.1494H40.0332V62.8494H34.2957V79.9869H51.4332V74.2869H57.1707V68.5494H62.8707V62.8494H68.5707V57.1494H74.3082V51.4119H57.1707Z" fill="white"/>
<path d="M68.5712 34.2754H62.8712V39.9754H68.5712V34.2754Z" fill="white"/>
<path d="M62.8693 39.9756H57.1693V45.7131H62.8693V39.9756Z" fill="white"/>
<path d="M28.5951 108.563H17.1576V114.263H5.72009V120.001H57.1701V114.263H45.7326V108.563H34.2951V102.863H28.5951V108.563Z" fill="white"/>
<path d="M34.2938 85.6885H28.5938V97.126H34.2938V85.6885Z" fill="white"/>
</g>
<defs>
<clipPath id="clip0_203_678">
<rect width="120" height="120" fill="white"/>
</clipPath>
</defs>
</svg>
